<svg aria-hidden="true" style="width:0;height:0;position:absolute;overflow:hidden" xmlns="http://www.w3.org/2000/svg"><defs><symbol id="icon-close" viewBox="0 0 32 32"><path fill="none" stroke="#86e543" style="stroke:var(--color1,#86e543)" stroke-linecap="round" stroke-width="3.556" d="M29.629 30.222 2.37 1.778m27.259 0L2.37 30.222"/></symbol><symbol id="icon-instagram" viewBox="0 0 32 32"><path fill="#fff" style="fill:var(--color2,#fff)" d="M16 0c8.837 0 16 7.163 16 16s-7.163 16-16 16S0 24.837 0 16 7.163 0 16 0z"/><path fill="#001414" style="fill:var(--color3,#001414)" d="M24 9a1 1 0 1 1-2 0 1 1 0 0 1 2 0zM16 23a7 7 0 1 1 0-14 7 7 0 1 1 0 14zm0-2.333a4.667 4.667 0 0 0 0-9.334 4.667 4.667 0 0 0 0 9.334z"/></symbol><symbol id="icon-youtube" viewBox="0 0 32 32"><path fill="#fff" style="fill:var(--color2,#fff)" d="M16 0c8.837 0 16 7.163 16 16s-7.163 16-16 16S0 24.837 0 16 7.163 0 16 0z"/><path fill="#001414" style="fill:var(--color3,#001414)" d="M22.251 10.987a1.958 1.958 0 0 1 1.415 1.351c.335 1.192.335 3.68.335 3.68s0 2.487-.333 3.679c-.185.657-.727 1.153-1.416 1.329-1.247.32-6.251.32-6.251.32s-5.003 0-6.251-.32c-.689-.176-1.231-.672-1.415-1.329C8 18.505 8 16.017 8 16.017s0-2.487.333-3.679a1.969 1.969 0 0 1 1.404-1.348l.014-.003c1.247-.32 6.249-.32 6.249-.32s5.003 0 6.251.32zm-7.887 2.772v4.516l4.181-2.259-4.181-2.257z"/></symbol><symbol id="icon-facebook" viewBox="0 0 32 32"><path fill="#fff" style="fill:var(--color2,#fff)" d="M16 0c8.837 0 16 7.163 16 16s-7.163 16-16 16S0 24.837 0 16 7.163 0 16 0z"/><path fill="#001414" style="fill:var(--color3,#001414)" d="M20 13.181h-2.952V11.52c0-.624.481-.769.821-.769h2.083V8.01l-2.869-.009c-3.184 0-3.908 2.045-3.908 3.353v1.827h-1.841v2.827h1.84v7.993h3.875v-7.993h2.613l.339-2.828z"/></symbol><symbol id="icon-close-mobile-menu" viewBox="0 0 32 32"><path fill="none" stroke="#86e543" style="stroke:var(--color1,#86e543)" stroke-linecap="round" stroke-width="3.556" d="M29.629 30.222 2.37 1.778m27.259 0L2.37 30.222"/></symbol><symbol id="icon-menu-burger" viewBox="0 0 48 32"><path fill="#86e543" style="fill:var(--color1,#86e543)" d="M45.467 13.333H2.534c-1.399 0-2.533.681-2.533 1.52v.16c0 .839 1.134 1.52 2.533 1.52h42.933c1.399 0 2.533-.681 2.533-1.52v-.16c0-.839-1.134-1.52-2.533-1.52zm0 13.334H2.534c-1.399 0-2.533.681-2.533 1.52v.16c0 .839 1.134 1.52 2.533 1.52h42.933c1.399 0 2.533-.681 2.533-1.52v-.16c0-.839-1.134-1.52-2.533-1.52zm0-26.667H2.534C1.135 0 .001.681.001 1.52v.16c0 .839 1.134 1.52 2.533 1.52h42.933C46.866 3.2 48 2.519 48 1.68v-.16C48 .681 46.866 0 45.467 0z"/></symbol></defs></svg>